<?xml version="1.0" encoding="utf-8"?>
<!-- Generator: Adobe Illustrator 22.0.0, SVG Export Plug-In . SVG Version: 6.00 Build 0)  -->
<svg version="1.1" id="Capa_1" xmlns="http://www.w3.org/2000/svg" xmlns:xlink="http://www.w3.org/1999/xlink" x="0px" y="0px"
	 viewBox="0 0 200 200" style="enable-background:new 0 0 200 200;" xml:space="preserve">
<style type="text/css">
	.st0{fill:#F7F7F8;}
	.st1{fill:#A82734;}
	.st2{fill:#00386D;}
	.st3{fill:#DE0008;}
	.st4{fill:#DE2910;}
	.st5{fill:#F4D60C;}
	.st6{fill:#004494;}
	.st7{fill:#E2001A;}
	.st8{fill:#009246;}
	.st9{fill:#CE2B37;}
	.st10{fill:#FFCE00;}
	.st11{fill:#DD0000;}
	.st12{fill:#0C6444;}
	.st13{fill:#C0242B;}
	.st14{fill:#3B1D0E;}
</style>
<g>
	<g>
		<path class="st0" d="M3,76C16.2,22.4,70.4-10.3,124,3c53.6,13.3,86.3,67.5,73,121.1c-13.3,53.6-67.5,86.3-121.1,73
			C22.4,183.8-10.3,129.6,3,76"/>
		<g>
			<path class="st12" d="M66.5,5.8C36,16.7,11.3,42.2,3,76c-12.5,50.4,15.6,101.3,63.6,118.2V5.8z"/>
			<path class="st13" d="M133.6,5.8l0,188.3c30.5-10.9,55.1-36.4,63.4-70.1C209.5,73.7,181.5,22.9,133.6,5.8"/>
		</g>
	</g>
	<circle class="st14" cx="100" cy="100" r="15.4"/>
</g>
</svg>
