<?xml version="1.0" encoding="utf-8"?>
<!-- Generator: Adobe Illustrator 22.0.0, SVG Export Plug-In . SVG Version: 6.00 Build 0)  -->
<svg version="1.1" id="Capa_1" xmlns="http://www.w3.org/2000/svg" xmlns:xlink="http://www.w3.org/1999/xlink" x="0px" y="0px"
	 viewBox="0 0 200 200" style="enable-background:new 0 0 200 200;" xml:space="preserve">
<style type="text/css">
	.st0{fill:#F7F7F8;}
	.st1{fill:#A82734;}
	.st2{fill:#00386D;}
	.st3{fill:#DE0008;}
	.st4{fill:#DE2910;}
	.st5{fill:#F4D60C;}
	.st6{fill:#004494;}
	.st7{fill:#E2001A;}
	.st8{fill:#009246;}
	.st9{fill:#CE2B37;}
	.st10{fill:#FFCE00;}
	.st11{fill:#DD0000;}
	.st12{fill:#0C6444;}
	.st13{fill:#C0242B;}
	.st14{fill:#3B1D0E;}
</style>
<g>
	<path class="st0" d="M3,76C16.2,22.4,70.4-10.3,124,3c53.6,13.3,86.3,67.5,73,121.1c-13.3,53.6-67.5,86.3-121.1,73
		C22.4,183.8-10.3,129.6,3,76"/>
	<path class="st1" d="M192.5,62H115v15.3h82.4C196.2,72,194.5,66.9,192.5,62 M172.7,31.3H115v15.3h69.6
		C181.1,41.2,177.2,36.1,172.7,31.3 M27.8,169.2h144.4c4.5-4.7,8.5-9.8,12-15.3H15.8C19.3,159.3,23.3,164.4,27.8,169.2 M124,2.9
		c-3-0.7-6-1.3-9-1.8V16h39.3C145.3,10.2,135.1,5.7,124,2.9 M199.7,92.6H115v15.3h84.7C200.1,102.8,200.1,97.6,199.7,92.6
		 M7.7,138.5h184.5c1.9-4.6,3.5-9.5,4.8-14.5c0.1-0.3,0.1-0.5,0.2-0.8H2.7C4,128.5,5.7,133.6,7.7,138.5 M76,197
		c5.9,1.5,11.8,2.4,17.7,2.7h12.7c16.9-1.1,33.1-6.5,47.1-15.3h-107C55.3,190.1,65.2,194.4,76,197"/>
	<path class="st2" d="M107.4,102.3l-2.2-1.6l-2.2,1.6l0.8-2.5l-2.2-1.6h2.7l0.8-2.5l0.8,2.5h2.7l-2.2,1.6L107.4,102.3z M96.8,21.7
		l0.8,2.6l-2.2-1.6l-2.2,1.6l0.8-2.6L92,20.2h2.7l0.8-2.6l0.8,2.6H99L96.8,21.7z M96.8,44.7l0.8,2.5l-2.2-1.6l-2.2,1.6l0.8-2.5
		L92,43.2h2.7l0.8-2.5l0.8,2.5H99L96.8,44.7z M96.6,67.3l0.8,2.5l-2.2-1.6l-2.2,1.6l0.8-2.5l-2.2-1.6h2.7l0.8-2.5l0.8,2.5h2.7
		L96.6,67.3z M97.2,92.1l-2.2-1.6l-2.2,1.6l0.8-2.5L91.6,88h2.7l0.8-2.5l0.8,2.5h2.7l-2.2,1.6L97.2,92.1z M86.6,32.9l0.8,2.5
		l-2.2-1.6l-2.2,1.6l0.8-2.5l-2.2-1.6h2.7l0.8-2.5l0.8,2.5h2.7L86.6,32.9z M86.6,55.2l0.8,2.5l-2.2-1.6l-2.2,1.6l0.8-2.5l-2.2-1.6
		h2.7l0.8-2.5l0.8,2.5h2.7L86.6,55.2z M86.6,78l0.8,2.6L85.3,79l-2.2,1.6L84,78l-2.2-1.6h2.7l0.8-2.6l0.8,2.6h2.7L86.6,78z
		 M87.5,102.3l-2.2-1.6l-2.2,1.6l0.8-2.5l-2.2-1.6h2.7l0.8-2.5l0.8,2.5h2.7l-2.2,1.6L87.5,102.3z M76.8,21.7l0.8,2.6l-2.2-1.6
		l-2.2,1.6l0.8-2.6L72,20.2h2.7l0.8-2.6l0.8,2.6H79L76.8,21.7z M76.8,44.7l0.8,2.5l-2.2-1.6l-2.2,1.6l0.8-2.5L72,43.2h2.7l0.8-2.5
		l0.8,2.5H79L76.8,44.7z M76.6,67.3l0.8,2.5l-2.2-1.6l-2.2,1.6l0.8-2.5l-2.2-1.6h2.7l0.8-2.5l0.8,2.5h2.7L76.6,67.3z M77.3,92.1
		l-2.2-1.6l-2.2,1.6l0.8-2.5L71.6,88h2.7l0.8-2.5l0.8,2.5h2.7l-2.2,1.6L77.3,92.1z M66.6,10.6l0.8,2.5l-2.2-1.6l-2.2,1.6l0.8-2.5
		L61.8,9h2.7l0.8-2.5L66.1,9h2.7L66.6,10.6z M66.6,32.9l0.8,2.5l-2.2-1.6l-2.2,1.6l0.8-2.5l-2.2-1.6h2.7l0.8-2.5l0.8,2.5h2.7
		L66.6,32.9z M66.6,55.2l0.8,2.5l-2.2-1.6l-2.2,1.6l0.8-2.5l-2.2-1.6h2.7l0.8-2.5l0.8,2.5h2.7L66.6,55.2z M66.6,78l0.8,2.6L65.3,79
		l-2.2,1.6L64,78l-2.2-1.6h2.7l0.8-2.6l0.8,2.6h2.7L66.6,78z M67.5,102.3l-2.2-1.6l-2.2,1.6l0.8-2.5l-2.2-1.6h2.7l0.8-2.5l0.8,2.5
		h2.7l-2.2,1.6L67.5,102.3z M56.8,20.9l0.8,2.6l-2.2-1.6l-2.2,1.6l0.8-2.6L52,19.4h2.7l0.8-2.5l0.8,2.5H59L56.8,20.9z M56.8,43.9
		l0.8,2.5l-2.2-1.6l-2.2,1.6l0.8-2.5L52,42.4h2.7l0.8-2.5l0.8,2.5H59L56.8,43.9z M56.6,66.5l0.8,2.5l-2.2-1.6L53.1,69l0.8-2.5
		l-2.2-1.6h2.7l0.8-2.5l0.8,2.5h2.7L56.6,66.5z M57.3,91.3l-2.2-1.6l-2.2,1.6l0.8-2.6l-2.2-1.6h2.7l0.8-2.5l0.8,2.5h2.7l-2.2,1.6
		L57.3,91.3z M46.6,32.9l0.8,2.5l-2.2-1.6l-2.2,1.6l0.8-2.5l-2.2-1.6h2.7l0.8-2.5l0.8,2.5h2.7L46.6,32.9z M46.6,55.2l0.8,2.5
		l-2.2-1.6l-2.2,1.6l0.8-2.5l-2.2-1.6h2.7l0.8-2.5l0.8,2.5h2.7L46.6,55.2z M46.6,78l0.8,2.6L45.3,79l-2.2,1.6L44,78l-2.2-1.6h2.7
		l0.8-2.6l0.8,2.6h2.7L46.6,78z M47.5,102.3l-2.2-1.6l-2.2,1.6l0.8-2.5l-2.2-1.6h2.7l0.8-2.5l0.8,2.5h2.7l-2.2,1.6L47.5,102.3z
		 M36.9,43.7l0.8,2.5l-2.2-1.6l-2.2,1.6l0.8-2.5L32,42.1h2.7l0.8-2.5l0.8,2.5H39L36.9,43.7z M36.7,66.3l0.8,2.5l-2.2-1.6l-2.2,1.6
		l0.8-2.5l-2.2-1.6h2.7l0.8-2.5l0.8,2.5h2.7L36.7,66.3z M37.3,91.1l-2.2-1.6L33,91.1l0.8-2.5L31.6,87h2.7l0.8-2.5l0.8,2.5h2.7
		l-2.2,1.6L37.3,91.1z M84.5,9l0.8-2.5L86.1,9h2.7l-2.2,1.6l0.8,2.5l-2.2-1.6l-2.2,1.6l0.8-2.5L81.8,9H84.5z M104.5,76.4l0.8-2.6
		l0.8,2.6h2.7l-2.2,1.6l0.8,2.6l-2.2-1.6l-2.2,1.6l0.8-2.6l-2.2-1.6H104.5z M104.5,53.6l0.8-2.5l0.8,2.5h2.7l-2.2,1.6l0.8,2.5
		l-2.2-1.6l-2.2,1.6l0.8-2.5l-2.2-1.6H104.5z M104.5,31.3l0.8-2.5l0.8,2.5h2.7l-2.2,1.6l0.8,2.5l-2.2-1.6l-2.2,1.6l0.8-2.5l-2.2-1.6
		H104.5z M104.5,9l0.8-2.5l0.8,2.5h2.7l-2.2,1.6l0.8,2.5l-2.2-1.6l-2.2,1.6l0.8-2.5L101.8,9H104.5z M26.7,55.2l0.8,2.5l-2.2-1.6
		l-2.2,1.6l0.8-2.5l-2.2-1.6h2.7l0.8-2.5l0.8,2.5h2.7L26.7,55.2z M26.7,78l0.8,2.6L25.3,79l-2.2,1.6L24,78l-2.2-1.6h2.7l0.8-2.6
		l0.8,2.6h2.7L26.7,78z M27.5,102.3l-2.2-1.6l-2.2,1.6l0.8-2.5l-2.2-1.6h2.7l0.8-2.5l0.8,2.5h2.7l-2.2,1.6L27.5,102.3z M16.7,65.9
		l0.8,2.5l-2.2-1.6l-2.2,1.6l0.8-2.5l-2.2-1.6h2.7l0.8-2.5l0.8,2.5h2.7L16.7,65.9z M17.3,90.7l-2.2-1.6L13,90.7l0.8-2.5l-2.2-1.6
		h2.7l0.8-2.5l0.8,2.5h2.7l-2.2,1.6L17.3,90.7z M7.5,102.3l-2.2-1.6l-2.2,1.6L4,99.8l-2.2-1.6h2.7l0.8-2.5l0.8,2.5h2.7l-2.2,1.6
		L7.5,102.3z M115,1.2c-1-0.2-8.3-1-9.3-1.1l-18,0.7C69.2,3,51.7,10.6,37.3,22.1l0.4,1.1l-0.9-0.7c-3.3,2.7-6.4,5.6-9.4,8.7h1.5
		l-2.2,1.6l0.8,2.5l-2.2-1.6l-0.9,0.6c-2,2.3-3.9,4.7-5.7,7.3H19l-0.6,0.5c-0.4,0.6-0.9,1.2-1.3,1.9l0.6,1.8L16.5,45
		C10.4,54.2,5.8,64.6,3,76c0,0.1-0.1,0.3-0.1,0.4h1.7l0.8-2.6l0.8,2.6h2.7L6.7,78l0.8,2.6L5.3,79l-2.2,1.6L4,78l-1.3-0.9
		c-2.5,10.4-3.2,20.9-2.4,31H115V1.2z"/>
</g>
</svg>
